<?xml version="1.0" standalone="no"?>
<!DOCTYPE svg PUBLIC "-//W3C//DTD SVG 20010904//EN"
 "http://www.w3.org/TR/2001/REC-SVG-20010904/DTD/svg10.dtd">
<svg version="1.0" xmlns="http://www.w3.org/2000/svg"
 width="1080.000000pt" height="1080.000000pt" viewBox="0 0 1080.000000 1080.000000"
 preserveAspectRatio="xMidYMid meet">
<metadata>
Created by potrace 1.14, written by Peter Selinger 2001-2017
</metadata>
<g transform="translate(0.000000,1080.000000) scale(0.100000,-0.100000)"
fill="#000000" stroke="none">
<path d="M0 5400 l0 -5400 5400 0 5400 0 0 5400 0 5400 -5400 0 -5400 0 0
-5400z m5995 4829 c61 -5 112 -14 114 -20 5 -17 44 -49 52 -43 4 2 14 -4 21
-13 21 -29 58 -41 143 -48 78 -6 103 -13 78 -22 -10 -4 -9 -8 1 -19 10 -10 38
-14 90 -14 72 0 75 -1 88 -27 11 -24 22 -30 78 -39 36 -7 61 -13 55 -13 -29
-5 88 -40 135 -41 30 0 85 -3 122 -6 59 -6 67 -9 72 -30 5 -20 13 -24 46 -24
32 0 40 -4 40 -18 0 -33 22 -42 100 -42 45 0 70 -4 62 -9 -11 -7 -10 -9 3 -15
9 -3 14 -10 10 -15 -3 -5 0 -13 6 -16 5 -4 8 -13 6 -19 -3 -7 -1 -19 4 -27 7
-11 9 -11 9 2 0 9 7 19 15 23 8 3 15 12 15 20 0 7 10 16 23 20 34 9 87 7 87
-3 0 -6 20 -13 45 -17 25 -3 45 -11 45 -16 0 -5 4 -6 10 -3 5 3 17 2 26 -3 11
-6 13 -11 5 -16 -12 -8 -15 -27 -3 -24 4 1 23 -4 44 -12 26 -10 35 -18 33 -32
-3 -13 2 -18 20 -18 13 0 27 -4 30 -10 3 -5 15 -10 26 -10 10 0 18 -3 18 -7
-4 -25 7 -31 60 -37 55 -6 80 -23 67 -45 -2 -3 18 -7 46 -8 48 -1 74 -16 62
-35 -3 -4 2 -8 11 -8 9 0 14 -4 10 -9 -3 -5 -1 -12 4 -16 6 -3 8 -11 5 -18 -2
-7 7 -24 21 -37 14 -13 25 -29 25 -37 0 -7 8 -13 18 -13 26 -1 52 -24 52 -47
0 -21 2 -22 87 -39 18 -3 30 -10 27 -15 -3 -5 0 -9 6 -9 6 0 9 -4 5 -9 -3 -5
7 -11 22 -13 24 -3 28 -9 37 -58 17 -83 39 -106 114 -120 51 -10 63 -16 68
-35 5 -19 14 -24 64 -29 55 -6 58 -8 56 -31 -2 -14 -6 -28 -9 -32 -11 -10 -8
-43 3 -43 6 0 10 -10 10 -22 0 -39 16 -52 73 -57 4 -1 7 -8 7 -16 0 -8 5 -15
10 -15 6 0 10 5 10 10 0 6 10 10 22 10 17 0 19 -3 10 -12 -9 -9 -3 -15 26 -25
20 -7 47 -13 60 -13 17 0 22 -6 22 -26 0 -14 4 -23 10 -19 6 3 10 1 10 -6 0
-7 17 -29 38 -49 20 -21 42 -46 48 -56 6 -11 20 -19 30 -20 40 -2 44 -5 44
-29 0 -14 4 -25 9 -25 5 0 22 -5 38 -12 15 -6 34 -12 42 -12 8 -1 16 -7 19
-15 3 -10 0 -12 -12 -8 -20 8 -22 -9 -2 -20 8 -4 15 -26 16 -48 4 -76 4 -75
-45 -75 -32 0 -51 -6 -65 -20 -11 -11 -26 -20 -34 -20 -8 0 -18 -4 -21 -10 -4
-6 -57 -10 -126 -10 -96 0 -119 -3 -119 -14 0 -32 -30 -46 -96 -46 -40 0 -77
-6 -95 -16 -17 -8 -33 -13 -37 -10 -3 3 -14 -2 -24 -11 -10 -9 -26 -18 -36
-19 -68 -9 -100 -20 -122 -40 -15 -13 -43 -25 -68 -28 -24 -3 -50 -10 -58 -17
-8 -6 -23 -9 -34 -6 -13 3 -25 -2 -33 -13 -8 -12 -26 -18 -55 -18 -23 0 -46
-3 -51 -7 -5 -3 -13 -30 -16 -60 -6 -45 -11 -54 -29 -57 -11 -2 -21 -7 -21
-13 -1 -22 -21 -43 -45 -47 -14 -1 -26 -10 -26 -18 -1 -8 -2 -21 -3 -27 0 -7
-14 -13 -31 -13 -27 0 -30 -3 -30 -30 0 -27 -3 -30 -30 -30 l-30 0 0 -90 0
-90 -30 0 -30 0 0 -90 c0 -87 -1 -90 -22 -90 -17 0 -20 -3 -9 -9 17 -11 7 -45
-12 -39 -6 3 -13 14 -15 26 -3 17 -10 22 -33 22 -26 0 -29 -3 -29 -30 l0 -30
-70 0 c-55 0 -70 3 -71 15 -1 8 -2 21 -3 28 0 6 -8 12 -16 12 -30 0 -23 238 8
241 7 1 17 2 23 3 6 1 9 22 6 59 -4 50 -7 58 -29 66 -25 9 -26 14 -33 105 -9
132 -8 131 -59 131 -41 0 -44 -2 -50 -31 -3 -17 -6 -58 -6 -90 0 -57 -1 -59
-26 -59 -29 0 -62 26 -41 33 15 5 3 20 -21 22 -27 3 -52 16 -47 25 12 19 -8
40 -37 40 -27 0 -30 -3 -26 -25 5 -24 3 -25 -48 -25 -51 0 -54 1 -54 25 0 18
5 25 20 25 16 0 20 7 20 30 0 29 -2 30 -44 30 -62 0 -74 6 -68 36 4 20 1 24
-22 24 -22 0 -26 4 -26 30 0 17 -4 30 -10 30 -5 0 -10 14 -10 30 0 23 -4 30
-20 30 -15 0 -20 7 -20 28 0 20 -8 32 -30 45 -27 16 -30 17 -30 2 0 -12 -8
-16 -32 -13 -18 2 -31 5 -29 8 2 3 -1 15 -8 28 -11 20 -19 22 -91 22 l-80 0 0
-30 c0 -25 -4 -30 -25 -30 -29 0 -33 -7 -37 -70 l-4 -45 -74 -3 c-101 -4 -155
8 -155 33 0 13 8 21 23 23 24 4 25 6 16 39 -4 14 -15 23 -33 25 -20 2 -27 9
-29 31 -2 19 -9 27 -23 27 -14 0 -19 -7 -19 -30 0 -29 -1 -29 -62 -32 -57 -3
-63 -5 -68 -28 -6 -25 -8 -25 -123 -28 l-117 -4 0 32 0 31 -77 -1 c-43 -1 -84
-1 -90 -1 -8 1 -13 14 -13 31 0 28 -1 29 -57 32 l-58 3 -2 50 c-1 27 -7 59
-12 70 -5 11 -11 27 -14 36 -6 19 -45 27 -105 21 l-42 -4 0 -73 c0 -40 -3 -93
-6 -119 -6 -39 -10 -46 -29 -46 -17 0 -24 -7 -28 -30 -6 -25 -11 -30 -36 -30
-49 0 -79 19 -85 54 -3 17 -5 34 -3 37 1 4 -6 16 -16 26 -9 11 -14 23 -10 27
19 19 -34 36 -109 36 -74 0 -78 -1 -79 -22 l-2 -23 -4 23 c-2 12 -9 22 -14 22
-5 0 -9 14 -9 30 0 28 -2 30 -40 30 -33 0 -40 -3 -40 -19 0 -26 -15 -35 -37
-22 -17 10 -16 10 2 11 19 1 19 1 2 11 -23 14 -54 3 -60 -21 -3 -13 -15 -20
-43 -22 -31 -2 -39 -7 -39 -23 0 -12 -8 -22 -20 -25 -12 -4 -22 -17 -25 -35
-4 -24 -11 -31 -33 -33 -26 -3 -27 -6 -27 -57 0 -61 -8 -70 -54 -61 -30 6 -33
9 -28 34 5 31 -13 20 -21 -13 -3 -15 -5 -13 -6 8 -1 28 -1 28 -63 25 -55 -3
-63 -5 -63 -23 0 -24 -13 -35 -42 -35 -19 0 -23 6 -23 30 0 27 -3 30 -30 30
-27 0 -30 3 -30 29 0 25 -4 30 -27 33 -27 3 -28 6 -31 61 -3 56 -4 57 -32 57
-27 0 -30 3 -30 30 0 27 -3 30 -30 30 l-30 0 0 60 c0 60 0 60 -29 60 -24 0
-31 5 -36 29 -5 23 -13 31 -33 33 -15 2 -28 10 -28 18 -1 8 -2 21 -3 28 0 6
-12 12 -26 12 -22 0 -25 4 -25 35 0 19 -4 35 -10 35 -5 0 -10 11 -10 24 0 18
-7 25 -30 30 -24 4 -30 11 -30 31 0 17 -5 25 -18 25 -10 0 -26 6 -36 13 -18
13 -19 40 -18 473 1 252 4 478 7 502 5 37 3 44 -17 52 -13 5 -18 9 -11 9 7 1
10 8 6 18 -5 13 -2 15 15 11 12 -4 25 -2 28 3 3 5 29 9 59 9 33 0 55 5 58 13
3 6 6 2 6 -10 1 -13 7 -23 16 -23 9 0 12 6 9 15 -4 8 -1 22 6 30 10 12 10 15
-1 16 -8 1 9 7 36 13 43 10 50 16 53 39 3 26 6 27 64 27 55 0 60 2 55 20 -6
23 8 35 48 39 17 2 31 6 33 11 2 4 13 6 25 3 18 -4 19 -3 7 6 -12 8 -12 13 -2
23 9 9 52 14 130 16 64 2 124 6 132 9 8 4 20 8 25 8 6 1 18 5 27 9 9 4 25 6
35 4 10 -2 23 3 29 10 7 10 40 17 95 21 73 5 84 8 81 24 -2 11 7 21 24 27 37
14 158 10 190 -6 14 -8 46 -14 70 -14 27 0 44 -5 44 -12 0 -6 9 0 21 13 19 22
29 24 128 27 59 2 122 -1 141 -6 27 -8 29 -10 12 -11 -29 -1 -18 -21 12 -21
12 0 28 -6 35 -12 10 -11 16 -9 28 10 19 28 40 28 62 1 16 -20 23 -21 90 -14
41 4 68 11 61 15 -8 5 0 12 22 21 71 28 170 34 333 18z m-3058 -735 c24 -9 43
-23 43 -30 0 -10 16 -14 60 -14 33 0 60 -3 61 -7 1 -10 5 -33 14 -71 3 -18 2
-33 -4 -37 -7 -3 -11 -45 -11 -101 l0 -94 -31 0 c-27 0 -30 -3 -27 -27 2 -20
9 -29 26 -31 20 -3 22 -8 21 -70 -1 -65 -2 -66 -12 -29 -6 20 -14 37 -18 37
-4 0 -10 -27 -14 -60 l-7 -61 -62 3 c-58 3 -61 4 -64 31 -2 15 -8 27 -13 27
-5 0 -9 8 -9 18 0 27 -13 40 -43 46 -37 6 -47 14 -47 36 0 14 -8 20 -32 22
-23 2 -36 10 -45 28 -13 27 -34 38 -74 39 -23 1 -27 7 -33 39 -3 20 -6 59 -6
86 0 34 -5 53 -17 61 -26 20 16 55 66 55 52 0 71 8 71 30 0 14 10 20 44 25 37
6 44 10 41 27 -7 36 54 48 122 22z m-676 -484 c1 -11 2 -26 3 -32 0 -7 11 -14
22 -16 24 -3 34 -27 34 -87 0 -66 9 -87 35 -81 12 3 25 2 29 -2 4 -4 14 -7 23
-7 16 0 27 -14 37 -47 3 -10 14 -18 25 -18 11 0 25 -9 31 -20 6 -10 29 -25 51
-31 44 -14 69 -48 69 -94 0 -20 6 -27 30 -31 23 -5 30 -12 30 -30 0 -20 5 -24
29 -24 16 0 43 -3 60 -6 26 -6 31 -11 31 -35 0 -28 -1 -29 -55 -29 -54 0 -56
-1 -61 -30 -6 -29 -8 -30 -60 -30 -52 0 -55 -1 -60 -29 -4 -20 -13 -31 -28
-33 -11 -2 -22 -12 -24 -23 -6 -28 -21 -45 -42 -45 -11 0 -20 -10 -24 -25 -6
-25 -27 -31 -93 -25 -17 1 -23 -4 -23 -17 0 -11 -6 -28 -14 -38 -8 -11 -12
-24 -9 -31 2 -6 -11 -17 -29 -24 -31 -13 -98 -76 -98 -92 0 -5 -7 -8 -15 -8
-8 0 -15 -7 -15 -15 0 -12 -13 -15 -61 -15 -37 0 -58 -4 -54 -10 3 -5 1 -10
-4 -10 -6 0 -11 -9 -11 -20 0 -19 -7 -20 -160 -20 l-160 0 0 38 c0 60 -10 82
-35 82 -17 0 -24 7 -28 29 -4 21 -13 30 -29 33 -20 3 -24 11 -32 60 -7 42 -14
58 -28 61 -12 3 -18 14 -18 31 0 16 -6 26 -14 26 -31 0 -26 55 5 65 11 4 19
16 19 30 0 16 7 25 24 29 14 3 26 16 30 29 4 19 16 26 48 33 29 6 44 15 46 27
2 11 25 40 50 65 26 25 47 53 47 61 0 9 10 20 22 26 26 11 36 45 32 116 -2 39
1 53 14 60 9 6 17 20 17 32 0 16 9 26 30 34 20 7 30 18 30 32 0 17 28 42 50
45 3 1 4 8 3 17 -3 19 34 29 108 29 45 0 49 2 49 24 0 27 9 30 78 34 36 3 42
0 43 -18z m7013 -770 c25 0 28 -3 24 -24 -4 -22 -1 -25 26 -28 27 -3 31 -7 34
-35 2 -20 9 -33 17 -33 17 0 45 -61 45 -96 0 -21 -5 -24 -34 -24 -30 0 -35 3
-38 28 -2 21 -9 28 -30 30 -24 3 -28 8 -28 33 0 24 -4 29 -25 29 -25 0 -25 0
-25 -96 0 -56 4 -93 9 -89 5 3 12 -3 14 -12 14 -51 20 -79 19 -85 -1 -4 10
-10 26 -14 15 -3 33 -7 40 -10 20 -6 17 -283 -4 -312 -8 -12 -10 -22 -5 -22
19 0 14 -176 -5 -205 -9 -14 -13 -25 -9 -25 3 0 0 -7 -9 -15 -8 -8 -26 -15
-39 -15 -29 0 -37 -16 -37 -76 0 -43 -1 -44 -33 -44 -37 0 -57 15 -57 42 0 15
-9 18 -60 18 l-60 0 0 30 c0 30 0 30 -59 30 -57 0 -59 1 -64 30 -6 29 -8 30
-62 30 -51 0 -55 2 -61 27 -7 25 -8 25 -15 8 -7 -19 -8 -18 -8 3 -1 22 -31 33
-31 10 0 -9 -3 -9 -12 0 -27 27 -88 10 -88 -24 0 -26 -10 -30 -28 -12 -9 9
-12 9 -12 0 0 -9 -29 -12 -100 -12 -90 0 -100 -2 -100 -18 0 -29 -21 -42 -67
-42 -24 0 -44 -4 -44 -10 -1 -5 -3 -14 -4 -20 -1 -5 -3 -14 -4 -20 0 -5 -28
-10 -61 -10 l-60 0 0 -30 c0 -27 -3 -30 -30 -30 l-30 0 0 60 c0 57 1 60 25 60
25 0 25 0 25 98 0 150 8 200 33 204 23 3 41 56 32 96 -5 21 2 27 33 23 8 -1
12 14 12 49 0 49 23 90 50 90 6 0 10 22 10 49 0 53 9 61 78 61 20 0 31 4 27
10 -3 6 -1 10 5 10 6 0 8 5 4 12 -4 6 0 16 8 22 9 6 17 20 19 31 4 16 14 21
57 23 35 2 55 8 59 18 3 7 11 14 19 14 8 0 14 7 14 15 0 12 14 15 65 15 37 0
65 4 65 10 0 6 9 10 19 10 11 0 23 5 26 10 3 6 19 10 35 10 15 0 30 5 32 11 4
11 145 32 159 23 5 -3 6 3 2 13 -6 15 -5 16 9 5 14 -11 16 -10 11 6 -6 23 23
35 79 32 30 -1 37 3 43 22 11 32 25 40 65 33 19 -2 48 -5 64 -5z m-3584 -204
c0 -23 -16 -36 -46 -36 -9 0 -14 11 -14 30 0 27 3 30 30 30 25 0 30 -4 30 -24z
m-993 8 c-3 -3 -12 -4 -19 -1 -8 3 -5 6 6 6 11 1 17 -2 13 -5z m1813 -69 c0
-18 -5 -25 -19 -25 -14 0 -17 6 -13 25 2 14 11 25 18 25 8 0 14 -10 14 -25z
m-3410 -65 l0 -30 60 0 60 0 0 -30 c0 -27 3 -30 30 -30 27 0 30 -3 30 -30 0
-29 1 -30 49 -30 45 0 50 -2 61 -30 10 -24 19 -30 41 -30 26 0 29 -4 29 -30 0
-30 0 -30 59 -30 l60 0 3 -32 c2 -24 8 -33 21 -32 12 1 17 -6 17 -27 0 -16 5
-29 10 -29 6 0 10 -13 10 -30 0 -27 -3 -30 -30 -30 -27 0 -30 3 -30 30 0 27
-3 30 -30 30 -27 0 -30 -3 -30 -30 0 -27 -3 -30 -30 -30 -27 0 -30 -3 -30 -30
0 -23 4 -30 20 -30 14 0 20 -7 20 -24 0 -25 -21 -36 -72 -36 -24 0 -28 -4 -28
-30 0 -27 -3 -30 -30 -30 -27 0 -30 3 -30 30 0 27 -3 30 -30 30 l-30 0 0 60
c0 53 2 60 20 60 15 0 20 7 20 29 0 25 -4 29 -32 33 -69 7 -68 9 -68 -123 l0
-119 -59 0 -58 0 -5 -52 c-3 -29 -3 -69 0 -90 4 -34 8 -38 34 -38 l29 0 -3
-57 -3 -58 -55 0 c-53 0 -55 1 -58 28 -3 24 0 27 27 27 31 0 38 11 25 44 -4
10 -18 16 -40 16 -31 0 -34 -3 -34 -30 0 -23 -4 -30 -20 -30 -16 0 -20 -7 -21
-37 -1 -21 0 -48 1 -60 1 -19 -4 -23 -29 -23 -28 0 -31 -3 -31 -30 l0 -30 60
0 60 0 0 30 c0 27 3 30 30 30 33 0 33 -2 24 -74 -6 -43 -9 -46 -35 -46 -26 0
-29 -4 -29 -30 l0 -30 -119 0 -118 0 1 -122 c1 -123 1 -123 -23 -126 -19 -3
-21 -6 -10 -13 12 -8 11 -12 -3 -23 -11 -8 -18 -26 -18 -45 0 -29 -2 -31 -35
-31 -32 0 -35 -2 -35 -29 0 -26 4 -30 33 -33 27 -2 32 -7 32 -28 0 -20 -6 -26
-30 -30 -24 -4 -31 -11 -36 -40 -5 -19 -6 -44 -3 -55 4 -16 0 -21 -21 -23 -20
-1 -28 4 -32 18 -3 11 -14 20 -24 20 -10 0 -21 5 -24 10 -3 6 -36 10 -72 10
-55 0 -64 2 -59 16 3 9 6 22 6 30 0 8 10 14 25 14 21 0 25 5 25 31 l0 30 -52
-3 -53 -3 -3 -57 -3 -58 -64 0 c-62 0 -64 1 -67 28 l-3 27 -200 0 c-110 0
-206 4 -212 8 -7 5 -13 17 -13 28 0 18 -8 19 -115 19 -98 0 -117 3 -132 19
-30 31 -59 41 -122 41 -34 0 -62 5 -62 10 -1 6 -3 15 -4 20 -1 6 -3 15 -4 20
0 6 -12 10 -26 10 -14 0 -25 5 -25 11 0 5 -4 7 -10 4 -5 -3 -10 1 -10 9 0 12
-10 16 -39 16 -26 0 -41 5 -45 16 -6 16 -8 16 -91 2 -17 -2 -5 -68 12 -68 9 0
24 -10 34 -22 11 -11 22 -18 26 -15 11 11 33 -14 33 -39 0 -17 6 -23 28 -26
19 -2 28 -9 30 -26 2 -12 11 -26 21 -32 10 -5 24 -23 31 -40 8 -19 20 -30 32
-30 10 0 17 -4 13 -9 -3 -6 1 -13 9 -18 7 -4 15 -17 17 -28 3 -15 16 -22 54
-28 28 -5 58 -13 67 -18 10 -5 24 -9 33 -9 8 0 19 -9 24 -19 13 -23 51 -28
269 -37 l152 -6 0 -29 c0 -29 0 -29 63 -29 82 0 105 -7 109 -34 3 -18 10 -21
66 -24 61 -3 62 -3 62 -32 0 -27 3 -30 30 -30 27 0 30 -3 30 -29 0 -25 5 -30
27 -33 44 -5 41 -68 -4 -68 -20 0 -24 -4 -21 -22 3 -20 10 -24 58 -28 l55 -5
3 -57 c3 -57 3 -58 33 -58 l30 0 -3 -57 c-3 -55 -5 -58 -30 -61 -23 -3 -27 1
-30 25 -2 22 -9 29 -30 31 -22 3 -28 9 -28 27 0 32 -8 35 -68 28 -46 -5 -51
-8 -54 -32 -3 -26 -4 -26 -90 -29 l-88 -3 0 -29 c0 -25 4 -30 25 -30 19 0 25
-5 25 -23 0 -32 18 -47 56 -47 50 0 64 9 64 41 0 33 18 44 54 35 19 -5 22 -11
18 -31 -4 -22 -1 -25 27 -25 l31 0 0 -150 c0 -140 1 -150 19 -150 30 0 42 -25
39 -77 l-3 -48 -177 -3 -177 -2 -3 -28 -3 -27 -145 -5 -145 -5 -3 -27 c-3 -28
-4 -28 -75 -28 -97 0 -117 -7 -117 -36 0 -18 -6 -24 -22 -25 -200 -7 -218 -10
-211 -38 4 -15 -3 -19 -43 -25 -26 -3 -80 -6 -120 -6 -72 0 -74 -1 -74 -25 0
-21 -5 -25 -30 -25 -25 0 -30 -4 -30 -25 0 -32 -11 -36 -107 -38 -77 -2 -78
-2 -81 -29 -3 -24 -8 -28 -33 -28 -25 0 -30 5 -36 31 -3 17 -11 33 -18 36 -7
2 -11 12 -8 22 5 19 -19 31 -64 31 -16 0 -22 -7 -25 -27 -2 -22 -9 -29 -31
-31 -27 -3 -31 -9 -27 -49 2 -29 -16 -30 -26 -1 -5 17 -8 19 -15 6 -13 -23 1
-58 22 -58 17 0 19 -8 19 -70 l0 -70 30 0 c23 0 31 5 36 25 4 18 13 25 30 25
31 0 31 -17 0 -31 -19 -9 -25 -21 -30 -66 -8 -69 8 -98 34 -62 12 16 16 34 12
65 l-5 44 37 0 c33 0 36 2 36 30 0 25 4 30 24 30 37 0 56 10 56 29 0 26 36 39
130 46 55 4 98 13 123 25 20 11 56 23 80 26 23 4 44 10 47 15 3 4 73 11 156
14 129 7 154 5 181 -9 26 -13 66 -16 215 -16 231 0 256 -4 260 -39 l3 -26 141
-3 142 -3 6 -29 c4 -24 11 -30 31 -30 21 0 25 -5 25 -29 0 -25 -4 -30 -27 -33
-22 -2 -29 -9 -31 -30 -3 -27 -6 -28 -58 -28 l-54 0 0 -60 0 -61 139 2 c77 0
145 -2 150 -6 6 -3 11 -17 11 -31 0 -20 5 -24 28 -24 24 0 28 -4 27 -27 0 -23
5 -29 28 -31 26 -3 29 -7 31 -42 1 -9 13 -16 34 -18 l33 -3 -3 -57 -3 -57 -55
-5 -55 -5 -3 -57 c-3 -57 -4 -58 -32 -58 -30 0 -30 0 -30 -60 l0 -60 30 0 c17
0 30 5 30 11 0 6 6 9 14 6 8 -3 17 1 20 9 3 8 0 14 -7 14 -7 1 0 8 16 16 15 8
27 20 27 27 0 7 5 4 11 -5 8 -15 24 -18 84 -18 l75 0 0 -30 c0 -27 -3 -30 -30
-30 -30 0 -30 0 -30 -59 0 -58 1 -60 28 -63 27 -3 27 -4 30 -85 3 -82 3 -83
-27 -101 -41 -25 -26 -43 38 -50 48 -4 51 -6 51 -33 0 -22 5 -29 20 -29 13 0
24 -10 30 -26 14 -35 14 -34 -20 -34 -27 0 -30 3 -30 31 l0 31 -76 -4 c-43 -2
-78 -8 -82 -15 -4 -7 -8 -32 -7 -55 0 -37 3 -43 23 -46 20 -3 22 -9 22 -68 0
-60 -1 -64 -23 -64 -29 0 -36 -6 -30 -29 4 -15 20 -17 131 -19 87 -2 122 1
112 8 -13 8 -12 10 5 11 12 0 15 3 7 6 -19 8 17 32 48 33 19 0 29 8 37 30 l11
30 121 0 121 0 0 -30 c0 -25 -4 -30 -24 -30 -51 0 -86 -12 -86 -31 0 -10 5
-21 10 -24 6 -3 10 -17 10 -30 0 -29 16 -35 91 -35 58 0 64 -4 60 -37 -1 -6
11 -13 26 -15 24 -2 29 -8 31 -36 2 -18 9 -35 17 -38 7 -3 11 -14 8 -27 -3
-16 -2 -18 5 -9 8 11 10 11 15 -1 4 -11 -5 -16 -34 -21 -41 -7 -48 -16 -25
-36 8 -6 16 -26 18 -43 3 -32 4 -32 58 -32 49 0 55 2 58 22 2 15 13 24 33 28
24 5 29 12 29 36 0 26 4 29 30 29 27 0 30 -3 30 -30 0 -27 3 -30 30 -30 28 0
30 -3 30 -36 0 -35 1 -35 31 -29 17 4 56 4 86 0 45 -5 54 -10 50 -24 -5 -19
15 -41 37 -41 21 0 25 9 32 74 l7 56 -32 0 -32 0 3 57 c3 52 5 58 28 63 18 4
26 13 28 33 3 23 8 27 33 27 l31 0 -2 -103 c-3 -200 -3 -204 24 -211 19 -5 23
-11 18 -28 -3 -14 -1 -19 6 -14 7 4 12 -6 14 -26 4 -44 32 -49 46 -9 10 28 15
31 56 31 60 0 76 -8 76 -35 0 -31 -15 -39 -67 -36 l-43 3 0 -55 0 -54 60 -2
c51 -1 60 2 61 16 1 15 2 15 6 2 2 -10 22 -19 51 -25 38 -7 48 -13 50 -32 3
-17 10 -22 33 -22 24 0 32 -6 40 -29 9 -27 16 -30 70 -36 32 -4 59 -12 59 -18
0 -5 8 -3 18 6 10 10 30 17 45 17 21 0 26 5 29 28 2 22 8 28 36 30 30 3 37 10
33 40 -1 7 8 16 21 22 20 7 20 9 4 9 -18 1 -18 3 4 26 23 25 54 32 76 17 7 -4
15 -32 19 -63 l7 -56 81 1 c74 1 82 -1 85 -19 9 -51 24 -95 30 -91 4 2 12 -11
18 -29 6 -19 8 -34 5 -33 -36 4 -40 -3 -43 -64 -3 -54 -6 -63 -23 -66 -31 -6
-34 -12 -35 -82 -2 -83 -7 -100 -30 -100 -16 0 -19 -13 -25 -132 -3 -73 -5
-223 -3 -333 l3 -200 38 -3 c37 -3 37 -4 37 -46 0 -37 4 -45 22 -49 12 -4 24
-4 27 -2 2 3 -1 5 -7 5 -18 0 -15 119 3 154 8 15 15 48 15 72 0 34 6 50 30 76
26 28 30 40 30 88 0 30 5 62 10 70 5 8 10 11 10 6 0 -5 6 -3 13 3 8 6 16 9 18
7 2 -2 4 5 5 17 1 46 12 94 28 125 14 27 22 32 51 32 36 0 37 2 48 90 1 8 15
21 30 28 15 7 27 19 27 27 0 17 31 35 60 35 12 0 19 3 17 8 -2 4 3 30 12 57
12 38 21 51 39 53 12 2 20 8 17 13 -3 5 -1 18 5 29 17 32 64 24 68 -12 3 -21
9 -27 30 -30 25 -3 27 -6 30 -60 3 -49 6 -57 27 -62 21 -5 24 -13 30 -80 5
-55 3 -189 -4 -223 -1 -2 -7 -3 -15 -3 -21 0 -30 -18 -36 -70 -4 -37 -9 -46
-27 -48 -13 -2 -23 -11 -24 -20 0 -14 -2 -13 -9 3 -7 18 -8 19 -15 3 -4 -10
-11 -16 -15 -13 -12 8 -28 -44 -35 -115 -5 -46 -12 -69 -26 -80 -10 -8 -21
-31 -24 -50 -3 -19 -10 -47 -17 -63 -8 -22 -13 -25 -24 -16 -11 9 -14 6 -14
-19 0 -16 -3 -44 -6 -61 -5 -24 -3 -31 10 -31 9 0 16 -4 16 -10 0 -5 6 -10 14
-10 7 0 19 -7 27 -16 10 -13 10 -17 -1 -24 -9 -6 -5 -9 16 -12 27 -3 29 -6 32
-55 l3 -53 55 -16 54 -15 0 -55 0 -54 -60 0 c-57 0 -60 -1 -60 -25 0 -30 -22
-37 -105 -33 l-60 3 -1 32 c0 30 -14 62 -14 34 0 -7 -10 -11 -22 -9 -17 2 -24
11 -26 31 -3 24 -8 27 -38 27 -31 0 -34 3 -34 29 0 16 -6 31 -15 35 -8 3 -15
15 -15 26 0 12 -7 28 -15 36 -8 9 -15 12 -15 8 0 -3 -7 -1 -15 6 -8 7 -12 16
-10 21 3 4 -3 12 -13 18 -16 8 -17 6 -14 -24 4 -30 1 -34 -24 -37 -23 -2 -30
-9 -32 -30 -2 -16 1 -28 7 -28 16 0 51 -33 51 -47 0 -8 12 -13 28 -13 l29 0
-10 -60 -10 -60 -113 0 -114 0 0 30 c0 29 -1 30 -49 30 -43 0 -54 5 -84 35
-30 30 -44 36 -95 41 -39 4 -62 3 -66 -5 -11 -17 -326 -15 -327 2 0 9 -2 9 -5
0 -9 -22 -54 7 -54 34 0 21 -3 23 -32 18 -38 -6 -54 2 -59 30 -4 18 -14 21
-94 25 l-90 5 -1 28 c-1 16 5 31 12 34 8 3 14 16 14 29 l0 24 -237 1 c-131 0
-246 4 -257 8 -10 4 -43 3 -73 -3 -50 -9 -57 -8 -70 10 -8 10 -12 29 -10 42 5
28 -9 38 -30 20 -15 -12 -16 -10 -9 14 5 23 3 28 -11 26 -40 -3 -51 3 -56 32
-6 29 -9 30 -59 31 -54 0 -90 9 -89 22 3 28 -3 36 -29 42 -16 3 -32 15 -35 25
-3 10 -22 24 -42 31 -21 7 -31 14 -24 19 8 5 3 17 -18 38 -16 18 -25 32 -20
32 4 0 6 7 3 15 -4 9 -24 15 -57 17 -48 3 -52 5 -55 31 -3 21 -9 27 -26 27
-26 0 -51 24 -42 38 3 6 -1 15 -9 22 -8 7 -15 21 -15 31 0 11 -9 21 -23 24
-12 3 -31 19 -42 35 -18 27 -25 30 -77 30 -39 0 -58 -4 -59 -12 0 -7 0 -34 1
-61 1 -36 -2 -47 -13 -47 -9 0 -17 -5 -19 -10 -6 -19 -88 28 -88 50 0 16 -7
20 -32 20 -41 0 -63 13 -55 33 6 17 -22 47 -45 47 -9 0 -18 10 -21 22 -4 12
-9 19 -13 15 -11 -11 -44 13 -44 33 0 18 -6 22 -62 34 -18 4 -28 13 -28 24 0
9 -13 28 -30 42 -24 20 -30 32 -30 65 0 32 -5 42 -22 50 -13 6 -22 15 -22 20
2 14 -27 32 -56 37 -18 2 -26 10 -28 28 -2 14 -8 30 -12 35 -8 9 -12 28 -24
108 -3 16 -10 34 -15 41 -6 7 -8 16 -4 19 3 4 -8 10 -25 13 -18 4 -32 13 -32
21 0 8 -5 11 -10 8 -6 -4 -8 -11 -5 -16 4 -5 -3 -5 -17 0 -27 10 -37 41 -14
41 8 0 20 9 26 20 6 11 18 20 28 21 14 0 14 2 -3 9 -23 10 -71 13 -62 4 15
-15 -13 -40 -48 -42 -33 -2 -35 -1 -30 21 6 22 3 25 -34 31 -35 5 -41 10 -41
30 0 16 -7 26 -23 30 -13 3 -27 18 -34 36 -9 25 -16 30 -32 25 -35 -11 -70 4
-73 33 -3 23 -8 27 -40 30 -32 3 -38 7 -38 27 0 14 -7 26 -18 29 -11 4 -17 16
-17 36 l-1 31 61 -3 c58 -3 60 -4 60 -30 -1 -25 3 -28 30 -28 24 0 27 2 15 11
-11 8 -12 12 -2 16 6 2 12 21 12 40 0 50 -40 100 -86 109 -25 5 -38 14 -45 31
-7 18 -15 24 -29 20 -15 -4 -22 3 -30 29 -11 32 -15 35 -51 32 -32 -1 -40 -7
-48 -29 -10 -29 -45 -44 -60 -25 -5 6 -11 34 -14 61 -10 91 -21 120 -45 123
-14 2 -22 10 -22 24 0 16 -5 19 -20 15 -17 -4 -20 -2 -15 14 4 11 2 19 -4 19
-6 0 -11 11 -11 24 0 13 -7 26 -15 30 -8 3 -15 14 -15 25 0 10 -7 21 -15 25
-8 3 -15 16 -15 30 0 14 -4 28 -10 31 -5 3 -10 17 -10 30 0 15 -7 26 -19 30
-11 3 -24 19 -29 34 -7 18 -17 28 -28 28 -11 -1 -21 9 -27 28 -5 17 -14 33
-20 36 -5 4 -7 11 -4 16 4 6 -7 20 -23 32 -22 15 -30 30 -30 51 0 17 -4 30 -9
30 -11 0 -31 55 -31 86 0 12 -5 24 -10 26 -6 2 -11 29 -11 61 -1 53 -3 57 -24
57 -21 0 -24 6 -30 54 -5 38 -12 55 -24 59 -16 4 -43 95 -46 154 0 13 -8 28
-16 35 -34 28 -53 289 -22 307 27 14 11 46 -25 49 -31 3 -32 5 -34 50 -4 100
-5 112 -18 127 -7 8 -19 15 -26 15 -18 0 -18 34 -1 49 10 7 31 8 73 1 89 -15
94 -11 94 68 -1 64 -16 105 -40 108 -6 1 -14 2 -20 3 -5 0 -10 26 -10 57 0 52
-2 56 -30 65 -22 8 -30 17 -30 34 0 13 -5 27 -11 31 -6 3 -8 15 -6 26 4 14 0
22 -14 25 -16 5 -19 14 -18 72 1 68 15 191 18 156 3 -44 21 11 21 65 0 55 -9
83 -26 81 -5 -1 -11 11 -12 26 -2 15 -8 33 -14 40 -6 8 -6 23 0 45 6 18 11
132 12 252 1 121 3 224 6 228 3 4 16 8 30 8 19 0 24 -5 24 -25 0 -18 5 -25 20
-25 13 0 20 7 20 20 0 11 7 23 15 26 8 4 15 17 15 29 0 13 4 25 9 27 4 2 11
13 15 25 5 16 2 25 -14 33 -11 6 -20 21 -20 35 0 13 -4 27 -10 30 -5 3 -10 19
-10 36 0 22 -5 29 -19 29 -12 0 -20 9 -23 25 -6 29 -2 35 24 35 12 0 18 7 18
24 0 18 -7 25 -30 30 -24 4 -30 11 -30 30 0 14 5 28 10 31 6 3 10 22 10 42 0
28 8 43 36 69 20 19 40 31 46 28 6 -4 8 -2 5 4 -10 15 3 42 19 42 9 0 14 11
14 29 0 16 6 36 14 44 8 8 17 35 21 60 4 26 10 47 14 47 4 0 12 33 19 73 8 54
8 89 -1 140 -10 60 -9 71 7 97 9 17 14 35 11 40 -3 6 1 10 9 10 11 0 16 9 16
30 0 23 4 30 20 30 15 0 20 7 20 28 0 18 3 23 9 14 6 -10 10 -8 14 10 4 12 7
33 7 46 0 17 6 22 25 22 24 0 30 12 26 48 -1 7 9 12 22 12 27 0 49 39 51 88 1
26 4 27 58 30 54 3 57 5 63 32 l6 29 112 3 112 3 3 28 c2 19 11 31 28 37 13 5
24 14 24 20 0 6 5 8 10 5 6 -3 10 1 10 9 0 12 -10 16 -36 16 -33 0 -35 2 -32
28 2 21 9 28 31 30 23 3 27 8 27 33 0 26 3 29 30 29 29 0 30 -2 30 -44 0 -62
7 -76 41 -76 26 0 29 -4 29 -30 0 -28 -3 -30 -35 -30 -28 0 -35 -4 -35 -19 0
-27 20 -40 68 -42 24 -2 41 -7 39 -13 -11 -33 67 -55 196 -56 19 0 26 -4 21
-12 -5 -8 -2 -9 11 -4 12 4 22 0 32 -14 13 -18 25 -20 146 -20 131 0 215 16
210 39 -2 6 14 13 35 16 65 11 72 15 72 40 0 22 4 24 63 27 59 3 62 4 65 31 3
26 6 27 57 27 51 0 54 1 60 30 4 20 13 30 25 30 34 0 50 12 50 36 0 23 3 24
60 24 l60 0 0 30 c0 27 3 30 30 30 27 0 30 3 30 30 0 27 3 30 30 30 27 0 30 3
30 30 0 27 3 30 30 30 27 0 30 3 30 30 l0 30 90 0 90 0 0 -30z m3833 -120 c-4
-16 -33 -30 -33 -16 0 2 -3 11 -6 19 -3 10 1 17 13 19 26 6 32 1 26 -22z
m2715 -139 c2 -40 -2 -52 -17 -60 -22 -12 -31 -5 -31 25 0 17 -7 24 -30 29
-22 5 -30 12 -30 29 0 20 5 23 53 25 l53 2 2 -50z m3 -192 c11 -5 17 -14 14
-19 -10 -17 8 -40 31 -40 24 0 24 -2 24 -90 0 -88 0 -90 24 -90 21 0 25 -6 31
-51 7 -53 3 -65 -30 -71 -16 -3 -21 -12 -23 -52 -3 -49 -18 -83 -37 -84 -9 -1
-13 -15 -31 -100 -4 -18 -9 -22 -24 -17 -16 5 -20 2 -20 -20 0 -20 -6 -27 -30
-31 -26 -6 -30 -11 -30 -38 0 -17 -3 -68 -7 -113 l-6 -83 27 0 c15 0 26 6 26
13 0 7 9 23 20 35 11 12 20 32 20 45 0 17 7 26 21 30 12 3 18 10 14 16 -3 6 1
11 9 11 12 0 16 11 16 45 0 33 4 45 15 45 8 0 15 5 15 12 0 9 3 9 12 0 9 -9
15 -3 25 26 7 20 13 47 13 60 0 19 5 22 35 22 31 0 35 -3 35 -25 0 -20 5 -25
23 -25 16 0 28 9 35 25 13 28 32 34 32 10 0 -9 6 -26 14 -38 8 -12 17 -45 21
-74 5 -36 12 -53 23 -55 11 -2 23 -30 38 -88 13 -47 23 -75 23 -62 1 37 18 25
26 -20 4 -24 7 -46 7 -50 -1 -4 8 -10 21 -14 12 -4 25 -12 29 -18 4 -6 8 -72
8 -147 0 -135 0 -137 24 -143 30 -7 36 -40 36 -218 0 -137 -8 -180 -39 -204
-10 -8 -16 -45 -20 -127 -7 -126 -22 -161 -67 -155 -11 1 -27 -2 -35 -9 -8 -6
-23 -12 -33 -14 -11 -2 -20 -13 -22 -24 -2 -11 -8 -21 -13 -23 -6 -2 -11 -19
-11 -38 0 -21 4 -33 10 -29 6 3 10 -1 10 -9 0 -10 6 -13 16 -9 9 3 21 -3 30
-16 8 -11 24 -21 35 -21 31 0 61 -20 55 -36 -3 -7 2 -17 11 -22 12 -7 14 -18
9 -43 -6 -35 -13 -69 -15 -81 0 -5 -9 -8 -19 -8 -15 0 -18 -14 -21 -137 -8
-251 -6 -270 26 -278 33 -8 32 -52 -2 -61 -34 -8 -34 -47 0 -62 14 -7 27 -12
28 -12 2 0 4 12 5 27 2 30 13 44 19 25 3 -6 9 -10 14 -6 5 3 9 -2 9 -10 0 -8
-4 -18 -10 -21 -5 -3 -10 -19 -10 -36 0 -19 -5 -29 -15 -29 -13 0 -15 -22 -15
-135 0 -132 0 -135 -25 -151 -15 -10 -25 -26 -25 -39 0 -13 -6 -30 -13 -37 -8
-7 -12 -18 -10 -25 2 -6 -1 -14 -6 -18 -6 -3 -11 0 -12 7 -1 23 -16 -25 -23
-75 -6 -38 -12 -50 -32 -57 -18 -7 -24 -17 -24 -40 0 -27 -3 -30 -30 -30 l-30
0 0 -67 c0 -92 -7 -113 -36 -113 -22 0 -24 -4 -25 -57 0 -32 -7 -74 -14 -93
-7 -19 -14 -31 -14 -27 -2 20 -41 -16 -41 -38 0 -20 -5 -25 -25 -25 -26 0 -26
-1 -29 -87 -1 -11 -4 -25 -8 -29 -5 -4 -8 -17 -8 -30 0 -24 -17 -34 -58 -34
-33 0 -57 -14 -48 -28 6 -10 -21 -39 -33 -35 -3 1 -15 0 -27 -3 -18 -5 -24
-20 -38 -98 -9 -51 -16 -142 -16 -204 0 -96 -2 -113 -17 -120 -10 -5 -24 -7
-30 -5 -9 3 -13 -6 -13 -26 0 -16 -5 -33 -11 -37 -6 -3 -9 -15 -6 -25 4 -15 0
-19 -19 -19 -14 0 -25 -6 -25 -15 -3 -29 -4 -33 -12 -42 -9 -8 -13 -9 -42 -12
-9 0 -15 -11 -15 -26 0 -20 -5 -25 -24 -25 -26 0 -40 -14 -41 -40 0 -8 -10
-19 -22 -25 -13 -5 -23 -18 -23 -28 0 -20 -37 -37 -79 -37 -28 0 -28 -1 -37
-83 l-9 -82 -60 -5 c-56 -5 -60 -7 -60 -30 0 -22 19 -39 58 -53 18 -6 -7 -37
-29 -37 -27 0 -30 -4 -39 -73 -5 -36 -10 -47 -20 -43 -8 3 -17 0 -21 -6 -4 -7
-3 -8 4 -4 21 13 13 -24 -13 -62 -14 -20 -25 -33 -25 -28 0 5 -9 -1 -20 -14
-11 -13 -20 -31 -20 -42 0 -13 -7 -18 -25 -18 -14 0 -25 -4 -25 -9 0 -14 -63
-60 -86 -64 -32 -5 -46 -18 -41 -38 3 -10 1 -22 -5 -25 -5 -3 -7 -15 -5 -26 4
-15 -1 -23 -23 -31 -17 -6 -30 -20 -32 -32 -2 -12 -9 -19 -20 -17 -9 1 -19 -2
-23 -8 -3 -5 -22 -10 -41 -10 -29 0 -34 -3 -34 -25 0 -22 -5 -25 -60 -31 -53
-6 -60 -9 -60 -29 0 -19 -7 -23 -46 -29 -26 -3 -68 -6 -93 -7 -50 0 -84 -10
-81 -23 3 -13 -80 -96 -96 -96 -8 0 -14 -10 -14 -26 0 -24 -1 -24 -16 -9 -12
11 -19 13 -24 5 -5 -7 -11 -6 -21 6 -13 15 -14 15 -19 -7 -4 -18 -14 -25 -38
-27 l-32 -3 0 -60 0 -59 -43 0 c-37 0 -45 -4 -60 -29 -9 -16 -17 -40 -17 -54
0 -22 -5 -26 -32 -29 -27 -2 -34 -8 -36 -30 -3 -26 -5 -26 -90 -33 -48 -3 -98
-7 -112 -8 -19 -2 -26 -8 -28 -29 l-3 -28 -82 0 c-125 0 -157 8 -157 36 0 22
-4 24 -44 24 -53 0 -76 -8 -76 -25 0 -16 -23 -25 -66 -25 -25 0 -34 4 -35 18
0 13 -3 11 -9 -6 -9 -21 -15 -23 -67 -20 l-58 3 -3 104 c-1 58 -7 110 -13 117
-11 13 17 24 64 24 24 0 27 4 29 38 3 68 -3 277 -9 297 l-6 20 -8 -20 c-6 -17
-8 -17 -8 -2 -1 11 -9 17 -26 17 -22 0 -25 5 -31 52 -5 39 -9 48 -15 33 -4
-12 -8 23 -8 81 -1 56 -4 121 -7 146 -6 43 -7 45 -43 46 -38 2 -63 24 -54 48
3 10 -2 14 -19 14 -28 0 -48 17 -48 42 0 11 -7 18 -19 18 -22 0 -45 25 -36 40
3 5 -2 13 -12 16 -43 13 -48 21 -48 70 0 43 -3 49 -25 54 -24 6 -25 8 -25 95
l0 90 30 5 c19 3 31 12 34 25 5 31 19 35 129 35 l103 0 -3 58 c-3 56 -3 57
-35 60 l-33 3 0 60 0 59 40 0 40 0 0 85 0 85 26 0 c23 0 26 -3 22 -25 -4 -21
-1 -25 18 -25 38 0 54 -11 54 -36 0 -20 -5 -24 -30 -24 -28 0 -30 -3 -30 -35
0 -24 5 -35 14 -35 30 0 46 13 46 36 0 17 6 24 20 24 13 0 20 -7 20 -19 0 -11
5 -23 10 -26 6 -3 10 -19 10 -36 0 -21 5 -29 18 -29 15 0 21 12 28 58 7 45 14
59 32 67 13 6 22 18 22 32 0 21 5 23 53 23 37 0 48 3 37 10 -13 9 -8 14 12 11
4 0 10 8 13 19 5 16 15 20 46 20 37 0 39 -2 39 -30 0 -23 5 -30 19 -30 14 0
21 8 23 28 2 22 9 28 38 32 19 3 35 11 36 18 1 6 2 32 3 57 1 43 2 45 31 45
27 0 30 3 30 30 0 27 3 30 30 30 27 0 30 -3 30 -30 l0 -30 60 0 c33 0 60 4 60
10 0 6 11 10 25 10 15 0 25 6 25 14 0 15 21 26 51 26 14 0 19 7 19 30 0 27 -3
30 -30 30 -27 0 -30 3 -30 30 0 22 5 30 18 30 11 0 18 8 19 22 3 32 20 38 111
38 57 0 88 4 97 14 8 7 11 17 7 21 -4 4 9 -1 28 -11 50 -26 60 -25 60 1 0 13
5 27 10 30 6 3 10 19 10 36 0 26 -3 29 -30 29 -26 0 -31 5 -36 30 -5 23 -12
30 -31 30 -24 0 -24 1 -21 88 l3 87 75 5 c73 5 75 6 78 33 2 15 8 27 13 27 5
0 9 14 9 30 0 23 4 30 20 30 16 0 20 7 20 30 0 27 3 30 30 30 19 0 30 5 30 14
0 8 3 21 6 30 5 12 0 16 -20 16 -20 0 -26 5 -26 23 0 12 -3 39 -6 60 l-7 37
37 0 36 0 1 -47 c1 -27 1 -54 0 -60 -2 -15 1 -15 23 -7 11 4 16 19 16 44 0 20
3 58 6 83 6 43 9 46 38 49 25 2 32 8 34 31 2 19 9 27 23 27 10 0 19 3 19 8 0
4 3 17 6 30 5 19 2 22 -20 22 l-26 0 0 90 0 90 84 0 84 0 7 60 c7 58 8 60 36
60 25 0 29 4 29 29 0 25 4 30 27 33 22 2 29 9 33 32 4 25 9 28 49 31 55 4 61
11 64 66 l2 44 -57 3 -58 3 0 88 0 88 61 7 c54 6 60 9 58 29 -5 43 11 86 33
89 19 3 35 42 48 116 0 1 -18 2 -41 2 -36 0 -40 -2 -37 -22 3 -19 -2 -24 -30
-26 -27 -3 -33 0 -32 15 1 10 2 35 1 55 -1 32 -4 37 -28 40 -38 4 -40 49 -3
58 19 4 26 13 28 38 3 26 8 32 27 32 18 0 24 6 27 28 2 23 8 28 36 30 l33 3
-3 57 -3 57 -57 3 -58 3 0 54 c0 52 -2 55 -24 55 -33 0 -39 12 -31 70 6 40 11
49 31 54 23 6 25 10 22 64 -3 53 -5 57 -29 60 -26 3 -26 5 -33 102 -4 54 -4
121 0 149 6 47 8 50 37 53 24 2 33 9 37 28 l6 25 147 3 c126 3 148 1 153 -12
8 -21 102 -23 110 -2 6 15 21 16 41 3 6 -4 14 -3 18 3 3 5 22 10 41 10 26 0
34 4 34 18 0 17 37 60 46 55 2 -2 4 0 3 3 -1 8 42 44 53 44 4 0 8 4 8 9 0 9
32 48 89 109 18 19 21 30 14 41 -8 13 -28 15 -111 13 -120 -5 -142 1 -142 34
0 24 -1 24 -89 24 -122 0 -151 7 -151 35 0 22 -3 23 -144 30 l-145 7 -3 27 -3
26 -142 3 -143 3 0 25 c0 19 -6 26 -30 31 -25 4 -30 10 -30 34 0 28 1 29 54
29 46 0 54 3 51 18 -5 30 15 42 71 42 53 0 55 1 61 30 5 30 6 30 69 30 35 0
64 -4 64 -8 0 -5 19 -19 41 -32 31 -17 46 -20 58 -13 10 6 83 6 211 0 325 -17
443 -14 439 11 -5 31 3 42 30 42 28 0 28 1 34 68 4 37 7 101 7 142 0 118 8
150 36 150 23 0 24 3 24 79 0 63 4 83 20 104 11 14 21 33 21 44 1 10 4 6 6
-10 2 -15 13 -32 24 -38z m169 -149 c0 -23 -4 -30 -20 -30 -16 0 -20 7 -20 30
0 23 4 30 20 30 16 0 20 -7 20 -30z m-2150 -120 c0 -28 -2 -30 -40 -30 -32 0
-40 4 -40 18 0 26 20 42 52 42 24 0 28 -4 28 -30z m-6167 -837 c-7 -2 -19 -2
-25 0 -7 3 -2 5 12 5 14 0 19 -2 13 -5z m7005 -185 c3 -25 0 -28 -27 -28 -28
0 -31 -3 -31 -30 l0 -30 -60 0 -61 0 3 44 c2 24 6 42 10 40 4 -2 10 1 14 7 4
8 9 7 15 -2 7 -11 9 -10 9 3 0 22 16 27 75 25 47 -2 50 -4 53 -29z m1570 -791
c3 -35 -9 -49 -23 -27 -4 6 -14 8 -23 6 -14 -5 -17 1 -15 27 1 17 2 33 2 34 1
1 13 1 29 0 24 -2 27 -7 30 -40z m-7468 -52 c0 -20 -5 -25 -25 -25 -20 0 -25
5 -25 25 0 20 5 25 25 25 20 0 25 -5 25 -25z m130 -180 c0 -21 -5 -25 -30 -25
-25 0 -30 4 -30 25 0 21 5 25 30 25 25 0 30 -4 30 -25z m-120 -53 c0 -15 -16
-30 -35 -34 -15 -2 -21 3 -23 21 -2 13 2 27 9 32 13 8 49 -6 49 -19z m5910
-162 c27 -4 35 -10 35 -25 0 -17 -8 -20 -52 -23 l-53 -3 0 36 c0 22 4 34 10
30 6 -4 11 6 11 22 l1 28 7 -30 c5 -25 12 -31 41 -35z m-25 -390 c0 -24 -5
-26 -45 -21 -11 1 -14 34 -3 45 4 4 16 6 28 4 14 -2 20 -10 20 -28z m-5707
-267 c-3 -55 -4 -58 -30 -61 -28 -3 -28 -3 -28 57 l0 61 30 0 31 0 -3 -57z
m4750 -810 c-2 -22 -9 -29 -30 -31 -25 -3 -28 0 -28 27 0 28 3 31 31 31 27 0
30 -3 27 -27z m2072 -248 c0 -14 -4 -25 -10 -25 -5 0 -10 11 -10 25 0 14 5 25
10 25 6 0 10 -11 10 -25z m-2250 -55 c0 -28 -3 -30 -34 -30 -41 0 -47 7 -35
38 6 16 16 22 39 22 27 0 30 -3 30 -30z m-3852 -182 c3 -25 0 -28 -27 -28 -28
0 -31 3 -31 31 0 27 3 30 28 27 21 -2 28 -9 30 -30z m3172 -183 c0 -18 -5 -25
-20 -25 -15 0 -20 7 -20 25 0 18 5 25 20 25 15 0 20 -7 20 -25z m-10 -105 c0
-5 -4 -10 -10 -10 -5 0 -10 5 -10 10 0 6 5 10 10 10 6 0 10 -4 10 -10z m-2332
-109 c23 -14 10 -46 -21 -49 -24 -3 -27 0 -27 27 0 32 19 41 48 22z m550 -146
c2 -25 -1 -31 -19 -32 -29 -3 -30 -4 -36 -60 -5 -51 -15 -63 -43 -56 -12 3
-20 18 -24 47 -8 54 -3 68 34 84 17 8 27 18 24 24 -9 14 16 29 41 26 14 -2 21
-12 23 -33z m1316 -511 c9 -3 16 -17 16 -30 0 -20 5 -24 29 -24 22 0 30 -6 35
-25 4 -14 13 -25 21 -25 36 0 95 -26 95 -41 0 -11 16 -21 48 -30 26 -7 50 -14
54 -14 14 0 18 -14 19 -88 1 -63 4 -77 18 -78 11 0 12 -2 3 -6 -16 -6 3 -33
24 -33 8 0 14 -4 14 -10 0 -5 14 -10 30 -10 28 0 30 -3 30 -35 0 -32 2 -35 30
-35 l29 0 0 -252 c0 -139 -3 -258 -7 -264 -4 -6 -17 -14 -29 -18 -17 -5 -23
-15 -23 -36 0 -15 -7 -30 -15 -34 -23 -8 -18 -43 8 -51 12 -4 25 -7 30 -6 4 1
7 -4 7 -9 0 -6 -5 -10 -12 -10 -6 0 -8 -3 -5 -7 4 -3 2 -12 -4 -20 -8 -8 -35
-13 -80 -13 -66 0 -69 -1 -69 -24 0 -30 -20 -36 -125 -36 -103 0 -155 -14
-155 -41 0 -18 -6 -20 -92 -17 -89 3 -92 4 -98 28 -5 22 -12 25 -58 28 -46 3
-53 6 -58 28 -3 13 -10 24 -15 24 -5 0 -9 14 -9 30 0 26 -5 31 -30 37 -16 3
-31 12 -31 19 -1 8 -2 19 -3 25 -1 13 -45 33 -47 21 -3 -18 -17 47 -18 81 -1
35 -10 43 -43 38 -5 0 -8 13 -8 30 0 22 5 32 20 36 11 3 17 10 14 15 -7 12 25
48 43 48 7 0 13 9 13 20 0 14 12 25 39 36 26 10 41 23 43 37 3 23 56 42 90 33
14 -3 18 0 14 9 -5 15 24 45 44 45 7 0 11 3 8 6 -4 3 0 21 8 40 8 18 13 37 12
41 -5 25 17 86 32 90 26 7 40 75 40 190 0 104 15 266 25 283 7 11 26 13 49 4z
m121 -84 c-3 -5 -12 -10 -18 -10 -7 0 -6 4 3 10 19 12 23 12 15 0z"/>
<path d="M4498 10113 c7 -3 16 -2 19 1 4 3 -2 6 -13 5 -11 0 -14 -3 -6 -6z"/>
<path d="M8595 8890 c3 -5 8 -10 11 -10 2 0 4 5 4 10 0 6 -5 10 -11 10 -5 0
-7 -4 -4 -10z"/>
<path d="M5140 8630 c0 -25 -4 -30 -25 -30 -20 0 -25 -5 -25 -25 0 -23 4 -25
45 -25 l45 0 0 39 c0 22 3 46 6 55 5 12 0 16 -20 16 -22 0 -26 -4 -26 -30z m5
-60 c3 -5 -1 -10 -10 -10 -9 0 -13 5 -10 10 3 6 8 10 10 10 2 0 7 -4 10 -10z"/>
<path d="M9035 8520 c3 -5 8 -10 11 -10 2 0 4 5 4 10 0 6 -5 10 -11 10 -5 0
-7 -4 -4 -10z"/>
<path d="M4420 8390 c0 -16 5 -30 11 -30 7 0 9 -10 6 -25 -4 -25 -3 -26 47
-23 l51 3 0 50 0 50 -57 3 -58 3 0 -31z"/>
<path d="M4310 8335 c0 -16 6 -25 15 -25 9 0 15 9 15 25 0 16 -6 25 -15 25 -9
0 -15 -9 -15 -25z"/>
<path d="M5930 8305 c0 -30 3 -55 8 -56 4 0 26 -2 50 -5 41 -6 42 -5 42 24 0
17 4 33 9 36 4 3 6 17 3 31 -4 23 -9 25 -58 25 l-54 0 0 -55z"/>
<path d="M6241 8334 c0 -11 3 -14 6 -6 3 7 2 16 -1 19 -3 4 -6 -2 -5 -13z"/>
<path d="M3433 7583 c-28 -4 -33 -8 -33 -31 0 -26 2 -27 60 -30 l60 -3 0 29
c0 29 -17 44 -43 40 -7 0 -27 -3 -44 -5z m-3 -17 c0 -3 -4 -8 -10 -11 -5 -3
-10 -1 -10 4 0 6 5 11 10 11 6 0 10 -2 10 -4z"/>
<path d="M2881 7188 c0 -16 -5 -28 -11 -28 -5 0 -10 -13 -10 -29 0 -25 4 -30
28 -33 21 -2 28 -9 30 -30 3 -24 8 -28 33 -28 29 0 29 0 29 60 l0 60 -44 0
c-41 0 -45 2 -49 28 l-4 27 -2 -27z"/>
<path d="M1140 7087 c0 -23 11 -47 21 -47 15 0 10 37 -6 50 -12 10 -15 10 -15
-3z"/>
<path d="M2507 6613 c-4 -3 -7 -28 -7 -54 0 -51 8 -59 61 -59 22 0 29 5 29 19
0 11 5 23 10 26 16 10 12 62 -6 69 -21 8 -79 8 -87 -1z"/>
<path d="M2330 5265 c0 -18 5 -25 20 -25 15 0 20 7 20 25 0 18 -5 25 -20 25
-15 0 -20 -7 -20 -25z"/>
<path d="M963 4333 c-30 -4 -33 -7 -33 -39 0 -19 5 -34 10 -34 6 0 10 -9 10
-19 0 -27 80 -40 117 -20 14 7 20 15 14 17 -6 2 -11 23 -11 47 0 56 -10 60
-107 48z"/>
<path d="M2380 4056 c0 -18 7 -39 15 -46 8 -7 13 -16 10 -20 -7 -12 33 -20 98
-20 58 0 62 3 58 43 -2 12 5 17 23 17 22 0 26 4 26 30 l0 30 -115 0 -115 0 0
-34z"/>
<path d="M2620 3946 c0 -32 13 -39 56 -32 24 5 34 12 34 26 0 10 6 21 13 23 6
3 -14 6 -45 6 -55 1 -58 0 -58 -23z"/>
<path d="M2268 3643 c3 -16 10 -31 16 -35 8 -5 7 -8 -1 -8 -7 0 -13 -8 -13
-19 0 -19 34 -31 87 -31 18 0 25 -7 30 -30 7 -37 18 -38 35 -2 9 18 22 28 41
30 23 3 27 8 27 33 0 26 -3 29 -30 29 -27 0 -30 3 -30 30 l0 30 -84 0 -83 0 5
-27z"/>
<path d="M2502 3463 c2 -19 10 -29 23 -31 16 -2 20 4 22 28 2 26 -1 30 -23 30
-22 0 -25 -4 -22 -27z"/>
<path d="M2680 3461 c0 -28 3 -31 31 -31 27 0 30 3 27 28 -2 21 -9 28 -30 30
-25 3 -28 0 -28 -27z"/>
<path d="M3160 2860 c0 -11 2 -20 4 -20 2 0 11 -3 20 -6 12 -5 16 0 16 20 0
19 -5 26 -20 26 -13 0 -20 -7 -20 -20z"/>
<path d="M1725 2458 c-10 -26 2 -55 17 -40 8 8 8 18 1 34 -10 21 -12 21 -18 6z"/>
<path d="M1702 2260 c0 -14 2 -19 5 -12 2 6 2 18 0 25 -3 6 -5 1 -5 -13z"/>
<path d="M4190 2210 c0 -5 6 -10 13 -10 8 0 7 -4 -3 -10 -13 -8 -12 -10 3 -10
10 0 17 8 17 20 0 11 -7 20 -15 20 -8 0 -15 -4 -15 -10z"/>
<path d="M3513 928 c11 -27 19 -33 43 -32 76 4 91 12 75 43 -10 18 -21 21 -71
21 l-60 0 13 -32z"/>
<path d="M9492 6558 c-13 -13 -17 -68 -4 -68 4 0 15 7 26 15 13 10 17 21 12
39 -7 29 -16 32 -34 14z"/>
<path d="M8700 6045 c0 -18 5 -25 20 -25 15 0 20 7 20 25 0 18 -5 25 -20 25
-15 0 -20 -7 -20 -25z"/>
<path d="M8766 5673 c-10 -66 -8 -73 20 -73 25 0 26 2 20 38 -3 20 -6 45 -6
55 0 33 -27 17 -34 -20z"/>
<path d="M8887 5643 c-10 -9 -9 -103 1 -103 24 1 35 20 29 53 -3 20 -1 39 6
46 8 8 6 11 -9 11 -12 0 -24 -3 -27 -7z"/>
<path d="M10122 5570 c0 -14 2 -19 5 -12 2 6 2 18 0 25 -3 6 -5 1 -5 -13z"/>
<path d="M8521 4216 c-1 -31 2 -45 14 -49 12 -5 15 3 15 43 0 65 -25 71 -29 6z"/>
<path d="M8334 3933 c3 -21 6 -48 6 -60 0 -13 6 -23 14 -23 15 0 30 45 21 60
-4 6 -1 10 4 10 6 0 11 11 11 25 0 21 -5 25 -31 25 -31 0 -31 -1 -25 -37z"/>
<path d="M7436 2943 c-3 -4 -6 -17 -6 -31 0 -18 4 -23 16 -18 9 3 18 6 20 6 2
0 4 5 4 11 0 15 -26 39 -34 32z"/>
<path d="M9283 2815 c-24 -27 -8 -45 38 -45 16 0 20 6 17 28 -3 31 -35 41 -55
17z"/>
<path d="M7140 1100 c0 -11 5 -20 10 -20 6 0 10 9 10 20 0 11 -4 20 -10 20 -5
0 -10 -9 -10 -20z"/>
<path d="M7263 1060 c-6 -14 -7 -26 -2 -28 18 -7 25 4 18 28 l-6 25 -10 -25z"/>
<path d="M7370 1060 c0 -11 7 -20 15 -20 8 0 15 9 15 20 0 11 -7 20 -15 20 -8
0 -15 -9 -15 -20z"/>
</g>
</svg>
